<svg xmlns="http://www.w3.org/2000/svg" xmlns:svg="http://www.w3.org/2000/svg" id="Layer_1" width="105.1" height="105.1" x="0" y="0" version="1.1" viewBox="0 0 105.1 105.1" xml:space="preserve"><metadata id="metadata99"/><style id="style2" type="text/css"/><path style="fill:#2172e9;fill-opacity:1;stroke:#000;stroke-width:2;stroke-linecap:butt;stroke-linejoin:miter;stroke-miterlimit:4;stroke-dasharray:none;stroke-opacity:1" id="path860" d="M 3.8812601,34.541018 C 3.0761121,20.388111 13.778523,6.0762079 30.703932,6.0235361 47.62934,5.9708641 57.60123,20.423208 57.45615,33.254619 c -0.09413,8.325112 -5.470565,19.48919 -15.444974,23.629288 -4.499867,1.690509 -4.314969,5.902059 -4.436726,9.750813 0,0 -14.115818,0.238114 -14.120921,-0.100863 0.02339,-4.301735 0.659394,-7.334085 -4.307689,-9.434755 C 11.761471,53.606316 4.4498081,44.534966 3.8812601,34.541018 Z"/><circle style="fill:#2172e9;fill-opacity:1;stroke:#000;stroke-width:2;stroke-linecap:round;stroke-linejoin:round;stroke-miterlimit:4;stroke-dasharray:none;stroke-opacity:1" id="path862" cx="30.615" cy="91.805" r="7.464"/><path style="fill:none;stroke:#000;stroke-width:3;stroke-linecap:round;stroke-linejoin:miter;stroke-miterlimit:4;stroke-dasharray:none;stroke-opacity:1" id="path896-09-2" d="m 20.756921,74.46497 19.783602,0.004"/><path style="fill:none;stroke:#000;stroke-width:3;stroke-linecap:round;stroke-linejoin:miter;stroke-miterlimit:4;stroke-dasharray:none;stroke-opacity:1" id="path896-09-2-3" d="m 23.160345,70.480854 14.84128,0.004"/><path style="fill:none;stroke:#000;stroke-width:2;stroke-linecap:round;stroke-linejoin:round;stroke-miterlimit:4;stroke-dasharray:none;stroke-opacity:1" id="path896-09-2-7" d="m 25.364576,78.650815 10.403276,0.004 c 0,0 -3.636908,1.645019 -5.453068,1.619392 -1.81616,-0.02563 -4.950208,-1.623392 -4.950208,-1.623392 z"/><path style="fill:none;stroke:#000;stroke-width:1px;stroke-linecap:butt;stroke-linejoin:miter;stroke-opacity:1" id="path1017" d="M 27.630721,66.297009 V 42.19058 c 0,0 -5.324571,-11.123823 -9.532768,-9.669399 -0.03331,0.01151 -0.06655,0.02381 -0.09972,0.03691 -1.892888,0.747663 -1.9193,5.010482 -0.201728,6.102255 4.139791,2.631453 8.205719,-6.709139 13.110995,-6.683076 4.620054,0.02455 8.333886,8.826454 12.281059,6.425345 1.664427,-1.012489 1.777621,-5.105179 -0.02483,-5.844524 -4.179121,-1.714231 -9.556838,9.60727 -9.556838,9.60727 l 0.100864,24.232508"/></svg>